<?xml version="1.0" encoding="utf-8"?>
<!-- Generator: Adobe Illustrator 21.0.0, SVG Export Plug-In . SVG Version: 6.00 Build 0)  -->
<svg version="1.1" id="图层_1" xmlns="http://www.w3.org/2000/svg" xmlns:xlink="http://www.w3.org/1999/xlink" x="0px" y="0px"
	 viewBox="0 0 600 600" style="enable-background:new 0 0 600 600;" xml:space="preserve">
<style type="text/css">
	.st0{fill:#FFFFFF;}
	.st1{fill:#26333B;}
	.st2{fill:#8FC740;}
	.st3{fill:#57737C;}
	.st4{fill:#8FC740;stroke:#8FC740;stroke-width:0.2;stroke-miterlimit:10;}
	.st5{fill:none;stroke:#57737C;stroke-width:2;stroke-miterlimit:10;}
</style>
<g>
	<rect y="-1" class="st0" width="600" height="600"/>
	<g>
		<g>
			<g>
				<g>
					<path class="st1" d="M143.1,299.8c2.3-5.1,3.5-12.2,3.5-21.2v-54.7H169v59.2c0,1.1,0,2.2-0.1,3.2
						C168.5,294.4,149.2,298.8,143.1,299.8"/>
					<path class="st2" d="M87.1,331.9c0-24.6,12.3-25.1,37.7-24.9c16.6,0.1,33.9-3.1,43.8-11.2c-2.6,12.5-29.6,20.7-48.3,21.1
						c15.7,0.8,40-3.8,46.6-13.6C154.4,342.4,108,317.2,87.1,331.9"/>
				</g>
			</g>
			<g>
				<path class="st1" d="M202.3,295.5v-27.6l-1.2-21.9h0.4l11.2,49.4h14l11.4-49.4l-1.4,21.9v27.5h18.5v-71.5h-25l-10.5,44.4
					l-10.1-44.4h-25.3v71.6H202.3z M287.4,273.6H268l0,0c1.2,14.6,10,21.9,26.4,21.9l0,0l0,0c9.8,0,17.2-1.9,22.2-5.6l0,0l0,0
					c5-3.7,7.5-9.4,7.7-17l0,0l0,0c-0.1-5.6-2.1-10.1-6.1-13.6l0,0l0,0c-4-3.4-9.4-5.7-16.3-6.7l0,0l0,0c-8.4-1.2-12.8-4-13.3-8.6
					l0,0l0,0c0.3-3.6,2.5-5.5,6.6-5.8l0,0l0,0c4.7-0.1,7.3,2.4,8,7.7l0,0h19.2l0,0c-0.6-7.4-3.2-12.9-7.8-16.6l0,0l0,0
					c-4.5-3.7-10.3-5.5-17.3-5.5l0,0l0,0c-4.1,0-8.1,0.6-11.9,1.8l0,0l0,0c-3.9,1.2-6.9,2.6-9.1,4.4l0,0l0,0
					c-4.7,3.8-7,9.2-7.1,16.2l0,0l0,0c0.1,3.6,1.1,7,3,10l0,0l0,0c1.9,3,4.7,5.6,8.2,7.6l0,0l0,0c3.4,2,7.3,3.3,11.7,3.9l0,0l0,0
					c8,1.2,12.1,3.8,12.4,7.9l0,0l0,0c0,2.1-0.8,3.8-2.3,5l0,0l0,0c-1.5,1.3-3.4,1.9-5.6,1.9l0,0l0,0c-2.4,0-4.5-0.8-6.2-2.4l0,0
					l0,0C288.8,278.5,287.7,276.4,287.4,273.6L287.4,273.6z"/>
			</g>
			<g transform="translate(0,36.33656311035156)">
				<g transform="translate(13.020004272460938,0)">
					<path class="st2" d="M160.2,282.4v-1.6h2v1.1l0,0c0,1.7,0.8,2.6,2.4,2.6l0,0l0,0c1.7,0,2.5-0.9,2.5-2.8l0,0v-11.6h2.1v11.5l0,0
						c-0.1,2.9-1.6,4.4-4.6,4.5l0,0l0,0C161.9,286.1,160.4,284.8,160.2,282.4L160.2,282.4z M180.7,277.7L180.7,277.7h-1.9l0,0
						c0-1.3-0.9-2-2.8-2l0,0l0,0c-1.4,0.1-2.2,0.6-2.2,1.6l0,0l0,0c-0.1,0.7,0.6,1.3,2.1,1.5l0,0l2,0.4l0,0c2.2,0.5,3.2,1.5,3.2,3.1
						l0,0l0,0c-0.1,2.3-1.6,3.5-4.5,3.6l0,0l0,0c-3.3,0-4.9-1.3-5-3.9l0,0h1.8l0,0c0.1,1.6,1.2,2.4,3.2,2.4l0,0l0,0
						c1.7-0.1,2.5-0.7,2.6-1.9l0,0l0,0c0.1-0.7-0.6-1.2-2.2-1.7l0,0l-2.3-0.5l0,0c-1.8-0.5-2.7-1.4-2.7-2.8l0,0l0,0
						c0.1-2.4,1.6-3.6,4.4-3.8l0,0l0,0C179.1,274.1,180.5,275.3,180.7,277.7z M193.9,279.5v1.6h-11.1v-1.6H193.9z M211.5,270.1v15.8
						h-2.1v-9.3l0,0c0-0.9,0-2.2,0-4l0,0l-4.5,13.3h-2.1l-4.4-13.3h-0.1l0,0c0,0.6,0,1.6,0.1,2.8l0,0l0,0c0,0.6,0,1,0,1.1l0,0v9.3
						h-2.1V270h3.1l4.6,13.4l4.5-13.4h3V270.1z M223.8,274.3v11.6H222v-1.6l-0.1-0.1l0,0c-0.8,1.3-2,2-3.7,1.9l0,0l0,0
						c-2.4-0.1-3.6-1.3-3.7-3.4l0,0v-8.3h2v7.7l0,0c0,1.7,0.7,2.6,2.2,2.6l0,0l0,0c1.9-0.1,3-1.4,3.2-3.9l0,0v-6.4L223.8,274.3
						L223.8,274.3z M226.7,270.1h2v15.8h-2V270.1z M235.7,274.3v1.6h-1.9v7.5l0,0c0,0.6,0.4,0.9,1.1,0.9l0,0h0.8v1.5l0,0
						c-0.3,0-0.7,0-1.2,0l0,0l0,0c-0.1,0-0.2,0-0.3,0l0,0l0,0c-1.7,0-2.5-0.7-2.4-2.2l0,0v-7.7h-1.5v-1.6h1.5v-3.2h2v3.2H235.7
						L235.7,274.3z M237.6,274.3h2v11.6h-2V274.3z M239.6,270.1v2.1h-2v-2.1H239.6z M252.9,279.5v1.6h-11.1v-1.6H252.9z M267,274.7
						L267,274.7h-2l0,0c-0.1-2-1.4-3.1-3.9-3.2l0,0l0,0c-2.4,0.1-3.5,1-3.5,2.8l0,0l0,0c0,1.1,0.6,1.8,1.9,2l0,0l4.5,1l0,0
						c2.4,0.6,3.5,2,3.5,4.3l0,0l0,0c-0.1,2.9-2.1,4.4-6.2,4.6l0,0l0,0c-2.2,0-3.8-0.5-4.7-1.4l0,0l0,0c-1.1-0.9-1.7-2.2-1.6-4l0,0
						h2.1l0,0c0.1,2.4,1.5,3.6,4.3,3.7l0,0l0,0c2.8-0.1,4.2-0.9,4.2-2.7l0,0l0,0c0.2-1.4-0.9-2.4-3.5-2.8l0,0l-3.3-0.7l0,0
						c-2.2-0.6-3.4-1.9-3.4-3.8l0,0l0,0c0.2-3.1,2-4.7,5.5-4.8l0,0l0,0C264.8,269.7,266.8,271.4,267,274.7z M277.7,282.3
						L277.7,282.3h1.9l0,0c-0.2,1.3-0.9,2.4-2.1,3.2l0,0l0,0c-0.6,0.4-1.7,0.6-3.1,0.6l0,0l0,0c-3.3-0.1-5-2-5.2-5.6l0,0l0,0
						c0.1-4.2,1.9-6.4,5.5-6.5l0,0l0,0c3.3,0.1,4.9,2.3,5,6.8l0,0h-8.4l0,0c0,2.5,1.1,3.8,3.4,3.8l0,0l0,0
						C276.3,284.5,277.3,283.7,277.7,282.3z M271.3,279.3L271.3,279.3h6.5l0,0c-0.2-2.3-1.3-3.4-3.3-3.4l0,0l0,0
						C272.6,276,271.6,277.1,271.3,279.3z M290,282.3L290,282.3h1.9l0,0c-0.2,1.3-0.9,2.4-2.1,3.2l0,0l0,0c-0.6,0.4-1.7,0.6-3.1,0.6
						l0,0l0,0c-3.3-0.1-5-2-5.2-5.6l0,0l0,0c0.1-4.2,2-6.4,5.5-6.5l0,0l0,0c3.3,0.1,4.9,2.3,5,6.8l0,0h-8.4l0,0
						c0,2.5,1.1,3.8,3.4,3.8l0,0l0,0C288.5,284.5,289.5,283.7,290,282.3z M283.6,279.3L283.6,279.3h6.5l0,0
						c-0.2-2.3-1.3-3.4-3.3-3.4l0,0l0,0C284.9,276,283.8,277.1,283.6,279.3z M301.9,270.1h1.9v15.8H302v-1.5l0,0
						c-0.7,1.1-1.8,1.7-3.3,1.7l0,0l0,0c-3.2-0.1-4.9-2.2-5.1-6.3l0,0l0,0c0.2-3.7,1.8-5.6,4.8-5.8l0,0l0,0c1.2,0,2.3,0.6,3.3,1.7
						l0,0l0,0c0.1,0.1,0.1,0.2,0.2,0.3l0,0v-0.1V270.1L301.9,270.1z M295.6,280.1L295.6,280.1L295.6,280.1c0.1,2.9,1.2,4.4,3.1,4.5
						l0,0l0,0c2.1-0.2,3.1-1.5,3.2-3.9l0,0l0,0c0-3.3-1-4.9-3.1-4.9l0,0l0,0C296.6,275.8,295.6,277.2,295.6,280.1z"/>
				</g>
			</g>
		</g>
		<g>
			<g>
				<path class="st3" d="M368.2,261.3c0-21.3,14.3-33.5,30.5-33.5c8.3,0,15,3.9,19.4,8.3l-8.1,9.8c-3.2-2.9-6.5-5-11.1-5
					c-8.3,0-15,7.4-15,19.9c0,12.7,5.8,20.1,14.9,20.1c5.1,0,9.2-2.6,12.2-5.8l8.1,9.6c-5.4,6.3-12.6,9.5-20.9,9.5
					C382,294.1,368.2,282.9,368.2,261.3z"/>
				<path class="st3" d="M398.2,295.1c-15.4,0-31-10.5-31-33.9c0-23.7,16.3-34.5,31.5-34.5c10.2,0,17,5.4,20.2,8.6l0.6,0.6
					l-9.3,11.3l-0.8-0.7c-3.6-3.3-6.7-4.7-10.4-4.7c-8.3,0-14,7.8-14,18.9c0,12,5.2,19.1,13.9,19.1c5.3,0,9.2-3,11.5-5.5l0.8-0.8
					l9.4,11.2l-0.6,0.6C414.3,291.7,406.9,295.1,398.2,295.1z M398.7,228.7c-14.2,0-29.5,10.2-29.5,32.5c0,19.3,11.4,31.9,29,31.9
					c7.9,0,14.4-2.9,19.6-8.5l-6.8-8.1c-2.6,2.6-6.7,5.4-12.2,5.4c-9.8,0-15.9-8.1-15.9-21.1c0-12.3,6.6-20.9,16-20.9
					c4.9,0,8.3,2.2,11,4.5l6.8-8.3C413.6,233.1,407.5,228.7,398.7,228.7z"/>
			</g>
			<g>
				<path class="st3" d="M431.9,228.9h15.4V280h24.9v12.9h-40.2V228.9z"/>
				<path class="st3" d="M473.2,293.9h-42.2v-66h17.4V279h24.9V293.9z M432.9,291.9h38.2V281h-24.9v-51.1h-13.4V291.9z"/>
			</g>
			<g>
				<path class="st3" d="M486.7,228.9h15.4v64h-15.4V228.9z"/>
				<path class="st3" d="M503.1,293.9h-17.4v-66h17.4V293.9z M487.7,291.9h13.4v-62h-13.4V291.9z"/>
			</g>
		</g>
		<g>
			<path class="st4" d="M343.6,310.9h-1.9c-0.2-2-1.5-3-3.9-3.1c-2.3,0.1-3.5,1-3.5,2.7c-0.1,1.1,0.6,1.8,1.9,1.9l4.4,1
				c2.3,0.6,3.5,2,3.5,4.2c-0.1,2.9-2.1,4.4-6.1,4.5c-2.3,0-3.8-0.4-4.6-1.3c-1.1-0.8-1.7-2.1-1.6-3.9h2c0,2.4,1.4,3.6,4.2,3.6
				c2.7-0.1,4.1-0.9,4.1-2.6c0.2-1.4-1-2.3-3.4-2.8l-3.2-0.7c-2.2-0.6-3.3-1.8-3.3-3.7c0.2-3,2-4.6,5.4-4.7
				C341.5,306.1,343.5,307.7,343.6,310.9z"/>
			<path class="st4" d="M351.3,312.2h-1.9v7.3c-0.1,0.7,0.3,1,1.1,0.9h0.8v1.4c-0.4,0-0.8,0-1.2,0h-0.3c-1.6,0-2.4-0.7-2.4-2.2v-7.5
				h-1.4v-1.6h1.4v-3.1h1.9v3.1h1.9V312.2z"/>
			<path class="st4" d="M355.5,314.1h-1.8c0.1-2.5,1.6-3.7,4.6-3.8c2.7,0.2,4.1,1.2,4.1,3.2v6.5c0,0.5,0.2,0.7,0.7,0.7h0.3
				c0.2-0.1,0.3-0.1,0.4-0.1v1.3c-0.1,0-0.3,0-0.5,0c-0.2,0.1-0.4,0.1-0.6,0.1c-1.3,0-2-0.5-1.9-1.6c-1.1,1.1-2.5,1.7-4.1,1.7
				c-2.3-0.1-3.4-1.2-3.5-3.1c0-2,1.2-3.2,3.5-3.5l3.1-0.3c0.7-0.1,1-0.5,1-1.4c-0.1-1.2-1-1.8-2.7-1.9
				C356.4,311.9,355.6,312.7,355.5,314.1z M360.6,318v-1.9c-0.5,0.3-1.5,0.5-3.1,0.8c-1.6,0.2-2.4,0.8-2.4,1.8
				c-0.1,1.3,0.6,1.9,1.9,1.9C359.2,320.5,360.4,319.7,360.6,318z"/>
			<path class="st4" d="M375.5,314.2v7.7h-1.9V315c0.1-2-0.8-3-2.4-3c-2,0.2-3,1.4-3,3.7v6.2h-1.9v-11.3h1.9v1.6
				c0.8-1.2,2-1.9,3.5-1.9C374.2,310.4,375.5,311.7,375.5,314.2z"/>
			<path class="st4" d="M388.3,306.5v15.4h-1.8v-1.5c-0.7,1.1-1.7,1.7-3.2,1.7c-3.2-0.1-4.9-2.2-5-6.2c0.2-3.5,1.7-5.4,4.7-5.7
				c1.2,0,2.2,0.6,3.1,1.8c0.1,0.1,0.2,0.1,0.3,0.2v-0.1v-5.7H388.3z M380.3,316.3c0.1,2.9,1.1,4.3,3,4.4c2-0.2,3-1.4,3.1-3.8
				c-0.1-3.1-1.1-4.8-3-4.8C381.3,312.1,380.3,313.5,380.3,316.3z"/>
			<path class="st4" d="M393.4,314.1h-1.8c0.1-2.5,1.6-3.7,4.6-3.8c2.7,0.2,4.1,1.2,4.1,3.2v6.5c0,0.5,0.2,0.7,0.7,0.7h0.3
				c0.2-0.1,0.3-0.1,0.4-0.1v1.3c-0.1,0-0.3,0-0.5,0c-0.2,0.1-0.4,0.1-0.6,0.1c-1.3,0-2-0.5-1.9-1.6c-1.1,1.1-2.5,1.7-4.1,1.7
				c-2.3-0.1-3.4-1.2-3.5-3.1c0-2,1.2-3.2,3.5-3.5l3.1-0.3c0.7-0.1,1-0.5,1-1.4c-0.1-1.2-1-1.8-2.7-1.9
				C394.3,311.9,393.5,312.7,393.4,314.1z M398.5,318v-1.9c-0.5,0.3-1.5,0.5-3.1,0.8c-1.6,0.2-2.4,0.8-2.4,1.8
				c-0.1,1.3,0.6,1.9,1.9,1.9C397.1,320.5,398.3,319.7,398.5,318z"/>
			<path class="st4" d="M406.4,315.3v6.6h-1.9v-11.3h1.9v1.9c0.8-1.5,1.9-2.3,3.2-2.3c0.1,0,0.1,0,0.3,0.1c0.1,0,0.2,0,0.3,0v2h-0.8
				C407.5,312.5,406.5,313.5,406.4,315.3z"/>
			<path class="st4" d="M421.3,306.5v15.4h-1.8v-1.5c-0.7,1.1-1.7,1.7-3.2,1.7c-3.2-0.1-4.9-2.2-5-6.2c0.2-3.5,1.7-5.4,4.7-5.7
				c1.2,0,2.2,0.6,3.1,1.8c0.1,0.1,0.2,0.1,0.3,0.2v-0.1v-5.7H421.3z M413.3,316.3c0.1,2.9,1.1,4.3,3,4.4c2-0.2,3-1.4,3.1-3.8
				c-0.1-3.1-1.1-4.8-3-4.8C414.3,312.1,413.3,313.5,413.3,316.3z"/>
			<path class="st4" d="M430.2,308.2v-1.8h12.5v1.8h-5.2v13.7h-2v-13.7H430.2z"/>
			<path class="st4" d="M444.4,316.3c0.2-3.8,2-5.8,5.2-6c3.2,0.2,5,2.2,5.2,6c-0.3,3.8-2,5.7-5.2,5.8
				C446.3,322,444.6,320,444.4,316.3z M446.3,316.3c0.1,2.8,1.2,4.2,3.3,4.3c2-0.1,3.1-1.5,3.3-4.3c-0.2-2.8-1.3-4.2-3.3-4.3
				C447.5,312.1,446.4,313.5,446.3,316.3z"/>
			<path class="st4" d="M457,316.3c0.2-3.8,2-5.8,5.2-6c3.2,0.2,5,2.2,5.2,6c-0.3,3.8-2,5.7-5.2,5.8C459,322,457.2,320,457,316.3z
				 M458.9,316.3c0.1,2.8,1.2,4.2,3.3,4.3c2-0.1,3.1-1.5,3.3-4.3c-0.2-2.8-1.3-4.2-3.3-4.3C460.2,312.1,459.1,313.5,458.9,316.3z"/>
			<path class="st4" d="M472.3,306.5v15.4h-1.9v-15.4H472.3z"/>
			<path class="st4" d="M477.6,308.6h-1.9v-2.1h1.9V308.6z M477.6,310.6v11.3h-1.9v-11.3H477.6z"/>
			<path class="st4" d="M490.2,314.2v7.7h-1.9V315c0.1-2-0.8-3-2.4-3c-2,0.2-3,1.4-3,3.7v6.2H481v-11.3h1.9v1.6
				c0.8-1.2,2-1.9,3.5-1.9C488.8,310.4,490.1,311.7,490.2,314.2z"/>
			<path class="st4" d="M503,310.6V321c0.1,3.6-1.7,5.4-5.1,5.5c-2.7-0.1-4.2-1.2-4.4-3.4h1.9c0.2,1.2,1.1,1.9,2.5,1.9
				c2.3,0,3.3-1.3,3.2-3.8v-0.5v0.1c-0.7,0.8-1.7,1.3-3,1.3c-3.2-0.1-4.9-2.2-5-6.2c0.2-3.5,1.7-5.4,4.7-5.7c1.4,0,2.5,0.6,3.4,1.9
				v-1.6H503z M495.1,316.3c0.1,2.9,1.1,4.3,3,4.4c1.9-0.2,2.9-1.4,3-3.8c0-3.2-1-4.8-3-4.8C496,312,495,313.4,495.1,316.3z"/>
		</g>
		<g>
			<rect x="333.5" y="258.9" class="st3" width="22.4" height="8"/>
			<rect x="333.5" y="258.9" class="st5" width="22.4" height="8"/>
		</g>
	</g>
</g>
</svg>
