<?xml version="1.0" encoding="utf-8"?>
<!-- Generator: Adobe Illustrator 21.0.0, SVG Export Plug-In . SVG Version: 6.00 Build 0)  -->
<svg version="1.1" id="图层_1" xmlns="http://www.w3.org/2000/svg" xmlns:xlink="http://www.w3.org/1999/xlink" x="0px" y="0px"
	 viewBox="0 0 400 400" style="enable-background:new 0 0 400 400;" xml:space="preserve">
<style type="text/css">
	.st0{fill:#FFFFFF;}
	.st1{fill:#26333B;}
	.st2{fill:#8FC740;}
</style>
<g>
	<rect class="st0" width="400" height="400"/>
	<g>
		<g>
			<g>
				<path class="st1" d="M137.4,221.9c2.3-5.1,3.5-12.2,3.5-21.2V146h22.4v59.2c0,1.1,0,2.2-0.1,3.2
					C162.8,216.5,143.5,220.9,137.4,221.9"/>
				<path class="st2" d="M81.4,254c0-24.6,12.3-25.1,37.7-24.9c16.6,0.1,33.9-3.1,43.8-11.2c-2.6,12.5-29.6,20.7-48.3,21.1
					c15.7,0.8,40-3.8,46.6-13.6C148.7,264.5,102.3,239.3,81.4,254"/>
			</g>
		</g>
		<g>
			<path class="st1" d="M196.6,217.6V190l-1.2-21.9h0.4l11.2,49.4h14l11.4-49.4l-1.4,21.9v27.5h18.5V146h-25L214,190.4L203.9,146
				h-25.3v71.6H196.6z M281.7,195.7h-19.4l0,0c1.2,14.6,10,21.9,26.4,21.9l0,0l0,0c9.8,0,17.2-1.9,22.2-5.6l0,0l0,0
				c5-3.7,7.5-9.4,7.7-17l0,0l0,0c-0.1-5.6-2.1-10.1-6.1-13.6l0,0l0,0c-4-3.4-9.4-5.7-16.3-6.7l0,0l0,0c-8.4-1.2-12.8-4-13.3-8.6
				l0,0l0,0c0.3-3.6,2.5-5.5,6.6-5.8l0,0l0,0c4.7-0.1,7.3,2.4,8,7.7l0,0h19.2l0,0c-0.6-7.4-3.2-12.9-7.8-16.6l0,0l0,0
				c-4.5-3.7-10.3-5.5-17.3-5.5l0,0l0,0c-4.1,0-8.1,0.6-11.9,1.8l0,0l0,0c-3.9,1.2-6.9,2.6-9.1,4.4l0,0l0,0c-4.7,3.8-7,9.2-7.1,16.2
				l0,0l0,0c0.1,3.6,1.1,7,3,10l0,0l0,0c1.9,3,4.7,5.6,8.2,7.6l0,0l0,0c3.4,2,7.3,3.3,11.7,3.9l0,0l0,0c8,1.2,12.1,3.8,12.4,7.9l0,0
				l0,0c0,2.1-0.8,3.8-2.3,5l0,0l0,0c-1.5,1.3-3.4,1.9-5.6,1.9l0,0l0,0c-2.4,0-4.5-0.8-6.2-2.4l0,0l0,0
				C283.1,200.6,282,198.5,281.7,195.7L281.7,195.7z"/>
		</g>
		<g transform="translate(0,36.33656311035156)">
			<g transform="translate(13.020004272460938,0)">
				<path class="st2" d="M154.5,204.5v-1.6h2v1.1l0,0c0,1.7,0.8,2.6,2.4,2.6l0,0l0,0c1.7,0,2.5-0.9,2.5-2.8l0,0v-11.6h2.1v11.5l0,0
					c-0.1,2.9-1.6,4.4-4.6,4.5l0,0l0,0C156.2,208.2,154.7,206.9,154.5,204.5L154.5,204.5z M175,199.8L175,199.8h-1.9l0,0
					c0-1.3-0.9-2-2.8-2l0,0l0,0c-1.4,0.1-2.2,0.6-2.2,1.6l0,0l0,0c-0.1,0.7,0.6,1.3,2.1,1.5l0,0l2,0.4l0,0c2.2,0.5,3.2,1.5,3.2,3.1
					l0,0l0,0c-0.1,2.3-1.6,3.5-4.5,3.6l0,0l0,0c-3.3,0-4.9-1.3-5-3.9l0,0h1.8l0,0c0.1,1.6,1.2,2.4,3.2,2.4l0,0l0,0
					c1.7-0.1,2.5-0.7,2.6-1.9l0,0l0,0c0.1-0.7-0.6-1.2-2.2-1.7l0,0l-2.3-0.5l0,0c-1.8-0.5-2.7-1.4-2.7-2.8l0,0l0,0
					c0.1-2.4,1.6-3.6,4.4-3.8l0,0l0,0C173.4,196.2,174.8,197.4,175,199.8z M188.2,201.6v1.6h-11.1v-1.6H188.2z M205.8,192.2V208
					h-2.1v-9.3l0,0c0-0.9,0-2.2,0-4l0,0l-4.5,13.3h-2.1l-4.4-13.3h-0.1l0,0c0,0.6,0,1.6,0.1,2.8l0,0l0,0c0,0.6,0,1,0,1.1l0,0v9.3
					h-2.1v-15.8h3.1l4.6,13.4l4.5-13.4H205.8z M218.1,196.4V208h-1.8v-1.6l-0.1-0.1l0,0c-0.8,1.3-2,2-3.7,1.9l0,0l0,0
					c-2.4-0.1-3.6-1.3-3.7-3.4l0,0v-8.3h2v7.7l0,0c0,1.7,0.7,2.6,2.2,2.6l0,0l0,0c1.9-0.1,3-1.4,3.2-3.9l0,0v-6.4L218.1,196.4
					L218.1,196.4z M221,192.2h2V208h-2V192.2z M230,196.4v1.6h-1.9v7.5l0,0c0,0.6,0.4,0.9,1.1,0.9l0,0h0.8v1.5l0,0
					c-0.3,0-0.7,0-1.2,0l0,0l0,0c-0.1,0-0.2,0-0.3,0l0,0l0,0c-1.7,0-2.5-0.7-2.4-2.2l0,0v-7.7h-1.5v-1.6h1.5v-3.2h2v3.2L230,196.4
					L230,196.4z M231.9,196.4h2V208h-2V196.4z M233.9,192.2v2.1h-2v-2.1H233.9z M247.2,201.6v1.6h-11.1v-1.6H247.2z M261.3,196.8
					L261.3,196.8h-2l0,0c-0.1-2-1.4-3.1-3.9-3.2l0,0l0,0c-2.4,0.1-3.5,1-3.5,2.8l0,0l0,0c0,1.1,0.6,1.8,1.9,2l0,0l4.5,1l0,0
					c2.4,0.6,3.5,2,3.5,4.3l0,0l0,0c-0.1,2.9-2.1,4.4-6.2,4.6l0,0l0,0c-2.2,0-3.8-0.5-4.7-1.4l0,0l0,0c-1.1-0.9-1.7-2.2-1.6-4l0,0
					h2.1l0,0c0.1,2.4,1.5,3.6,4.3,3.7l0,0l0,0c2.8-0.1,4.2-0.9,4.2-2.7l0,0l0,0c0.2-1.4-0.9-2.4-3.5-2.8l0,0l-3.3-0.7l0,0
					c-2.2-0.6-3.4-1.9-3.4-3.8l0,0l0,0c0.2-3.1,2-4.7,5.5-4.8l0,0l0,0C259.1,191.8,261.1,193.5,261.3,196.8z M272,204.4L272,204.4
					h1.9l0,0c-0.2,1.3-0.9,2.4-2.1,3.2l0,0l0,0c-0.6,0.4-1.7,0.6-3.1,0.6l0,0l0,0c-3.3-0.1-5-2-5.2-5.6l0,0l0,0
					c0.1-4.2,1.9-6.4,5.5-6.5l0,0l0,0c3.3,0.1,4.9,2.3,5,6.8l0,0h-8.4l0,0c0,2.5,1.1,3.8,3.4,3.8l0,0l0,0
					C270.6,206.6,271.6,205.8,272,204.4z M265.6,201.4L265.6,201.4h6.5l0,0c-0.2-2.3-1.3-3.4-3.3-3.4l0,0l0,0
					C266.9,198.1,265.9,199.2,265.6,201.4z M284.3,204.4L284.3,204.4h1.9l0,0c-0.2,1.3-0.9,2.4-2.1,3.2l0,0l0,0
					c-0.6,0.4-1.7,0.6-3.1,0.6l0,0l0,0c-3.3-0.1-5-2-5.2-5.6l0,0l0,0c0.1-4.2,2-6.4,5.5-6.5l0,0l0,0c3.3,0.1,4.9,2.3,5,6.8l0,0h-8.4
					l0,0c0,2.5,1.1,3.8,3.4,3.8l0,0l0,0C282.8,206.6,283.8,205.8,284.3,204.4z M277.9,201.4L277.9,201.4h6.5l0,0
					c-0.2-2.3-1.3-3.4-3.3-3.4l0,0l0,0C279.2,198.1,278.1,199.2,277.9,201.4z M296.2,192.2h1.9V208h-1.8v-1.5l0,0
					c-0.7,1.1-1.8,1.7-3.3,1.7l0,0l0,0c-3.2-0.1-4.9-2.2-5.1-6.3l0,0l0,0c0.2-3.7,1.8-5.6,4.8-5.8l0,0l0,0c1.2,0,2.3,0.6,3.3,1.7
					l0,0l0,0c0.1,0.1,0.1,0.2,0.2,0.3l0,0V198L296.2,192.2L296.2,192.2z M289.9,202.2L289.9,202.2L289.9,202.2
					c0.1,2.9,1.2,4.4,3.1,4.5l0,0l0,0c2.1-0.2,3.1-1.5,3.2-3.9l0,0l0,0c0-3.3-1-4.9-3.1-4.9l0,0l0,0
					C290.9,197.9,289.9,199.3,289.9,202.2z"/>
			</g>
		</g>
	</g>
</g>
</svg>
