<svg data-v-b90af754="" version="1.0" xmlns="http://www.w3.org/2000/svg" xmlns:xlink="http://www.w3.org/1999/xlink" width="100%" height="100%" viewBox="0 0 340.000000 250.000000" preserveAspectRatio="xMidYMid meet" color-interpolation-filters="sRGB" class="el-tooltip" style="margin: auto;"><rect data-v-b90af754="" x="0" y="0" width="100%" height="100%" fill="transparent" fill-opacity="1"></rect> <rect data-v-b90af754="" x="0" y="0" width="100%" height="100%" fill="url(#watermark)" fill-opacity="1" class="watermarklayer"></rect> <g data-v-b90af754="" fill="#f96464" class="icon-svg-group iconsvg" transform="translate(52.495750427246094,95)"><g class="iconsvg-imagesvg" transform="translate(0,0)"><rect fill="#f96464" fill-opacity="0" stroke-width="2" x="0" y="0" width="48.435992052228" height="60"></rect> <svg x="0" y="0" width="48.435992052228" height="60" class="imagesvg-svg"><svg xmlns="http://www.w3.org/2000/svg" viewBox="0 0 113.76 140.92"><g><g><path d="M25.5 111.82c4.56 4.94 11.7 7.05 23.88 7.05h15.3c8.18 0 17.35 0 23.68-7.1 6.18-6.91 6.14-14.67 6.09-25.41V0h-5.28v86.4c0 11-.1 15.61-4.29 20.31-4.84 5.42-12.65 5.42-20.21 5.42H49.38c-10.68 0-17-1.68-20.46-5.44-3.12-3.38-4.41-7.6-4.43-14.56V80.97H19.2v11.2c.05 8.92 1.99 14.98 6.3 19.65z" fill="#b7c406"></path><path d="M108.49 0v82.06c0 19.52-.73 28.5-8 38.93-6.45 9.25-17.51 13.19-37 13.19h-12.9c-19.49 0-30.56-3.94-37-13.19-2.5-3.57-8.32-13.54-8.32-28.8V81H0v11.19c0 17.57 6.75 29.13 9.65 33.28 7.55 10.83 19.79 15.45 40.94 15.45h12.89c21.14 0 33.38-4.62 40.93-15.45 8.43-12.06 9.35-23 9.35-43.41V0z" fill="#f96464"></path><path d="M50.59 129.69h12.89c18.38 0 28.66-3.5 34.38-11.69 6.14-8.85 7.14-16 7.14-35.94V0h-7v83.79c0 12 .66 22.46-7.28 31.36-7.34 8.22-17.58 8.2-26 8.2H49.38c-11.58 0-20.26-1.72-26.15-8.1-4.76-5.16-7.49-12.17-7.53-23.06V81H8.79v11.19c0 11 3.49 20.19 7.42 25.82 5.71 8.18 16 11.68 34.38 11.68z" fill="#00aad8"></path></g></g></svg></svg> <!----></g> <g transform="translate(55.43599319458008,13.290040969848633)"><g class="tp-name iconsvg-namesvg" transform="translate(0.001251220703125,0)"><g><path transform="translate(-0.53224651490958,17.700027719227)" d="M3.07-12.46L7.09-12.46L7.09 0.88L7.09 0.88Q7.09 1.65 6.94 2.00L6.94 2.00L6.94 2.00Q6.66 2.72 5.95 3.01L5.95 3.01L5.95 3.01Q5.59 3.15 4.81 3.15L4.81 3.15L2.05 3.15L2.05 3.15Q1.26 3.15 0.89 2.79L0.89 2.79L0.89 2.79Q0.53 2.42 0.53 1.63L0.53 1.63L0.53 0.22L2.68 0.22L2.68 0.22Q3.07 0.22 3.07-0.17L3.07-0.17L3.07-12.46ZM3.06-14.12L3.06-17.67L7.08-17.67L7.08-14.12L3.06-14.12ZM22.07-10.97L22.07-9.56L13.87-9.56L13.87-9.56Q13.31-9.56 13.31-8.99L13.31-8.99L13.31-7.80L13.31-7.80Q13.31-7.24 13.87-7.24L13.87-7.24L19.61-7.24L19.61-7.24Q20.45-7.24 20.83-7.08L20.83-7.08L20.83-7.08Q21.61-6.77 21.92-5.99L21.92-5.99L21.92-5.99Q22.07-5.62 22.07-4.78L22.07-4.78L22.07-1.40L22.07-1.40Q22.07-0.57 21.92-0.19L21.92-0.19L21.92-0.19Q21.61 0.59 20.83 0.89L20.83 0.89L20.83 0.89Q20.45 1.05 19.61 1.05L19.61 1.05L10.98 1.05L10.98 1.05Q10.20 1.05 9.84 0.69L9.84 0.69L9.84 0.69Q9.48 0.32 9.48-0.48L9.48-0.48L9.48-1.88L17.63-1.88L17.63-1.88Q18.20-1.88 18.20-2.45L18.20-2.45L18.20-3.88L18.20-3.88Q18.20-4.45 17.63-4.45L17.63-4.45L11.89-4.45L11.89-4.45Q11.05-4.45 10.68-4.61L10.68-4.61L10.68-4.61Q9.90-4.91 9.59-5.70L9.59-5.70L9.59-5.70Q9.43-6.07 9.43-6.91L9.43-6.91L9.43-10.03L9.43-10.03Q9.43-10.88 9.59-11.26L9.59-11.26L9.59-11.26Q9.90-12.03 10.68-12.34L10.68-12.34L10.68-12.34Q11.05-12.49 11.89-12.49L11.89-12.49L20.55-12.49L20.55-12.49Q21.35-12.49 21.71-12.13L21.71-12.13L21.71-12.13Q22.07-11.77 22.07-10.97L22.07-10.97ZM37.19-6.84L24.37-6.84L24.37-9.93L37.19-9.93L37.19-6.84ZM46.24-9.49L43.28-9.49L43.28 1.04L39.49 1.04L39.49-12.46L43.28-12.46L43.28-10.89L43.28-10.89Q43.43-11.57 43.84-12.03L43.84-12.03L43.84-12.03Q44.22-12.46 45.12-12.46L45.12-12.46L48.08-12.46L48.08-12.46Q48.94-12.46 49.28-12.28L49.28-12.28L49.28-12.28Q49.80-11.99 50.12-10.96L50.12-10.96L50.12-10.96Q50.57-12.00 50.99-12.23L50.99-12.23L50.99-12.23Q51.41-12.46 52.25-12.46L52.25-12.46L55.97-12.46L55.97-12.46Q56.94-12.46 57.37-12.28L57.37-12.28L57.37-12.28Q58.26-11.91 58.63-11.01L58.63-11.01L58.63-11.01Q58.81-10.58 58.81-9.59L58.81-9.59L58.81 1.04L55.01 1.04L55.01-8.55L55.01-8.55Q55.01-9.49 54.07-9.49L54.07-9.49L51.83-9.49L51.83-9.49Q50.89-9.49 50.89-8.55L50.89-8.55L50.89 1.04L47.18 1.04L47.18-8.55L47.18-8.55Q47.18-9.49 46.24-9.49L46.24-9.49ZM66.27-2.05L70.29-2.05L70.30-12.46L74.16-12.46L74.16 1.04L70.42 1.04L70.32-0.78L70.32-0.78Q70.14-0.32 69.92 0.08L69.92 0.08L69.92 0.08Q69.37 1.04 68.17 1.04L68.17 1.04L64.30 1.04L64.30 1.04Q63.33 1.04 62.90 0.86L62.90 0.86L62.90 0.86Q62.01 0.48 61.65-0.45L61.65-0.45L61.65-0.45Q61.47-0.91 61.47-1.91L61.47-1.91L61.47-12.46L65.33-12.46L65.33-2.98L65.33-2.98Q65.33-2.05 66.27-2.05L66.27-2.05ZM76.86 1.04L76.86-17.67L80.88-17.67L80.88 1.04L76.86 1.04ZM90.37-14.05L90.37-11.60L96.36-11.60L96.36-8.50L90.37-8.50L90.37-2.82L90.37-2.82Q90.37-1.89 91.31-1.89L91.31-1.89L96.02-1.89L96.02-0.46L96.02-0.46Q96.02 0.32 95.66 0.68L95.66 0.68L95.66 0.68Q95.29 1.04 94.51 1.04L94.51 1.04L89.18 1.04L89.18 1.04Q88.21 1.04 87.78 0.86L87.78 0.86L87.78 0.86Q86.88 0.48 86.53-0.46L86.53-0.46L86.53-0.46Q86.35-0.92 86.35-1.94L86.35-1.94L86.35-8.50L83.51-8.50L83.51-11.60L86.35-11.60L86.35-14.05L90.37-14.05ZM99.07 1.04L99.07-12.43L103.09-12.43L103.09 1.04L99.07 1.04ZM99.07-14.12L99.07-17.67L103.09-17.67L103.09-14.12L99.07-14.12ZM118.29-6.84L105.48-6.84L105.48-9.93L118.29-9.93L118.29-6.84ZM133.21-10.97L133.21-9.56L125.01-9.56L125.01-9.56Q124.44-9.56 124.44-8.99L124.44-8.99L124.44-7.80L124.44-7.80Q124.44-7.24 125.01-7.24L125.01-7.24L130.75-7.24L130.75-7.24Q131.59-7.24 131.96-7.08L131.96-7.08L131.96-7.08Q132.74-6.77 133.06-5.99L133.06-5.99L133.06-5.99Q133.21-5.62 133.21-4.78L133.21-4.78L133.21-1.40L133.21-1.40Q133.21-0.57 133.06-0.19L133.06-0.19L133.06-0.19Q132.74 0.59 131.96 0.89L131.96 0.89L131.96 0.89Q131.59 1.05 130.75 1.05L130.75 1.05L122.12 1.05L122.12 1.05Q121.34 1.05 120.98 0.69L120.98 0.69L120.98 0.69Q120.62 0.32 120.62-0.48L120.62-0.48L120.62-1.88L128.77-1.88L128.77-1.88Q129.34-1.88 129.34-2.45L129.34-2.45L129.34-3.88L129.34-3.88Q129.34-4.45 128.77-4.45L128.77-4.45L123.03-4.45L123.03-4.45Q122.19-4.45 121.82-4.61L121.82-4.61L121.82-4.61Q121.04-4.91 120.73-5.70L120.73-5.70L120.73-5.70Q120.57-6.07 120.57-6.91L120.57-6.91L120.57-10.03L120.57-10.03Q120.57-10.88 120.73-11.26L120.73-11.26L120.73-11.26Q121.04-12.03 121.82-12.34L121.82-12.34L121.82-12.34Q122.19-12.49 123.03-12.49L123.03-12.49L131.69-12.49L131.69-12.49Q132.48-12.49 132.85-12.13L132.85-12.13L132.85-12.13Q133.21-11.77 133.21-10.97L133.21-10.97ZM139.94-4.93L139.94-4.93L139.94-2.64L139.94-2.64Q139.94-1.89 140.69-1.89L140.69-1.89L148.75-1.89L148.75-0.75L148.75-0.75Q148.75 0.18 148.29 0.61L148.29 0.61L148.29 0.61Q147.85 1.04 146.88 1.04L146.88 1.04L139.03 1.04L139.03 1.04Q138.02 1.04 137.57 0.86L137.57 0.86L137.57 0.86Q136.64 0.51 136.26-0.39L136.26-0.39L136.26-0.39Q136.07-0.82 136.07-1.79L136.07-1.79L136.07-10.31L136.07-10.31Q136.07-11.04 136.21-11.37L136.21-11.37L136.21-11.37Q136.50-12.05 137.22-12.32L137.22-12.32L137.22-12.32Q137.56-12.46 138.34-12.46L138.34-12.46L146.48-12.46L146.48-12.46Q147.25-12.46 147.60-12.32L147.60-12.32L147.60-12.32Q148.32-12.05 148.61-11.37L148.61-11.37L148.61-11.37Q148.75-11.04 148.75-10.31L148.75-10.31L148.75-6.23L148.75-6.23Q148.75-5.49 148.61-5.16L148.61-5.16L148.61-5.16Q148.32-4.48 147.60-4.21L147.60-4.21L147.60-4.21Q147.25-4.08 146.48-4.08L146.48-4.08L142.02-4.08L142.02-4.08Q140.81-4.08 140.28-4.54L140.28-4.54L140.28-4.54Q140.11-4.69 139.94-4.93ZM139.94-9.09L139.94-6.86L144.47-6.86L144.47-6.86Q145.03-6.86 145.03-7.49L145.03-7.49L145.03-9.05L145.03-9.05Q145.03-9.67 144.47-9.67L144.47-9.67L140.50-9.67L140.50-9.67Q139.94-9.67 139.94-9.09L139.94-9.09ZM155.62-4.93L155.62-4.93L155.62-2.64L155.62-2.64Q155.62-1.89 156.38-1.89L156.38-1.89L164.43-1.89L164.43-0.75L164.43-0.75Q164.43 0.18 163.98 0.61L163.98 0.61L163.98 0.61Q163.54 1.04 162.56 1.04L162.56 1.04L154.71 1.04L154.71 1.04Q153.71 1.04 153.25 0.86L153.25 0.86L153.25 0.86Q152.32 0.51 151.94-0.39L151.94-0.39L151.94-0.39Q151.76-0.82 151.76-1.79L151.76-1.79L151.76-10.31L151.76-10.31Q151.76-11.04 151.89-11.37L151.89-11.37L151.89-11.37Q152.19-12.05 152.90-12.32L152.90-12.32L152.90-12.32Q153.24-12.46 154.02-12.46L154.02-12.46L162.17-12.46L162.17-12.46Q162.94-12.46 163.29-12.32L163.29-12.32L163.29-12.32Q164.00-12.05 164.29-11.37L164.29-11.37L164.29-11.37Q164.43-11.04 164.43-10.31L164.43-10.31L164.43-6.23L164.43-6.23Q164.43-5.49 164.29-5.16L164.29-5.16L164.29-5.16Q164.00-4.48 163.29-4.21L163.29-4.21L163.29-4.21Q162.94-4.08 162.17-4.08L162.17-4.08L157.70-4.08L157.70-4.08Q156.49-4.08 155.96-4.54L155.96-4.54L155.96-4.54Q155.79-4.69 155.62-4.93ZM155.62-9.09L155.62-6.86L160.15-6.86L160.15-6.86Q160.72-6.86 160.72-7.49L160.72-7.49L160.72-9.05L160.72-9.05Q160.72-9.67 160.15-9.67L160.15-9.67L156.19-9.67L156.19-9.67Q155.62-9.67 155.62-9.09L155.62-9.09ZM170.28-12.49L176.24-12.49L176.24-17.70L180.10-17.70L180.10 1.02L176.24 1.02L176.24-0.83L176.24-0.83Q176.11-0.23 175.78 0.18L175.78 0.18L175.78 0.18Q175.09 1.02 174.02 1.02L174.02 1.02L170.28 1.02L170.28 1.02Q169.31 1.02 168.88 0.84L168.88 0.84L168.88 0.84Q167.99 0.44 167.62-0.49L167.62-0.49L167.62-0.49Q167.44-0.94 167.44-1.96L167.44-1.96L167.44-9.48L167.44-9.48Q167.44-10.51 167.62-10.96L167.62-10.96L167.62-10.96Q167.99-11.91 168.88-12.31L168.88-12.31L168.88-12.31Q169.31-12.49 170.28-12.49L170.28-12.49ZM172.29-2.07L176.24-2.07L176.24-9.37L172.29-9.37L172.29-9.37Q171.16-9.37 171.16-8.28L171.16-8.28L171.16-3.16L171.16-3.16Q171.16-2.07 172.29-2.07L172.29-2.07Z"></path></g> <!----></g> <g class="tp-slogan iconsvg-slogansvg" fill="#00aad8" transform="translate(0,24.701818466186523)"><!----> <rect x="0" height="1" y="3.8600001335144043" width="100.35000610351562"></rect> <!----> <g transform="translate(103.35000610351562,0)"><path transform="translate(-0.1875,8.578125)" d="M0.19-1.92L0.19-2.77L1.27-2.77L1.27-2.16L1.27-2.16Q1.27-0.75 2.58-0.75L2.58-0.75L2.58-0.75Q3.94-0.75 3.94-2.25L3.94-2.25L3.94-8.58L5.11-8.58L5.11-2.30L5.11-2.30Q5.06 0.09 2.63 0.14L2.63 0.14L2.63 0.14Q0.33 0.09 0.19-1.92L0.19-1.92ZM11.34-4.45L11.34-4.45L10.31-4.45L10.31-4.45Q10.31-5.53 8.81-5.53L8.81-5.53L8.81-5.53Q7.64-5.48 7.59-4.64L7.59-4.64L7.59-4.64Q7.50-4.03 8.72-3.80L8.72-3.80L9.80-3.56L9.80-3.56Q11.58-3.14 11.53-1.88L11.53-1.88L11.53-1.88Q11.44 0 9.09 0.09L9.09 0.09L9.09 0.09Q6.42 0.09 6.38-2.02L6.38-2.02L7.36-2.02L7.36-2.02Q7.45-0.70 9.09-0.70L9.09-0.70L9.09-0.70Q10.45-0.75 10.50-1.73L10.50-1.73L10.50-1.73Q10.59-2.30 9.28-2.63L9.28-2.63L8.02-2.91L8.02-2.91Q6.56-3.28 6.56-4.41L6.56-4.41L6.56-4.41Q6.66-6.33 8.95-6.47L8.95-6.47L8.95-6.47Q11.20-6.42 11.34-4.45ZM18.52-3.47L18.52-2.58L12.47-2.58L12.47-3.47L18.52-3.47ZM20.81 0L19.73 0L19.73-6.28L20.77-6.28L20.77-5.39L20.77-5.39Q21.47-6.47 22.69-6.47L22.69-6.47L22.69-6.47Q23.77-6.47 24.28-5.48L24.28-5.48L24.28-5.48Q24.33-5.44 24.33-5.44L24.33-5.44L24.33-5.44Q25.17-6.52 26.25-6.47L26.25-6.47L26.25-6.47Q28.17-6.33 28.22-4.31L28.22-4.31L28.22 0L27.14 0L27.14-4.03L27.14-4.03Q27.19-5.53 25.97-5.48L25.97-5.48L25.97-5.48Q24.66-5.34 24.52-3.80L24.52-3.80L24.52 0L23.44 0L23.44-4.31L23.44-4.31Q23.44-5.48 22.45-5.48L22.45-5.48L22.45-5.48Q20.86-5.39 20.81-3.42L20.81-3.42L20.81 0ZM34.78-6.28L34.78 0L33.80 0L33.80-0.89L33.75-0.94L33.75-0.94Q33.09 0.14 31.73 0.09L31.73 0.09L31.73 0.09Q29.77 0 29.72-1.78L29.72-1.78L29.72-6.28L30.80-6.28L30.80-2.11L30.80-2.11Q30.80-0.70 32.02-0.70L32.02-0.70L32.02-0.70Q33.61-0.75 33.75-2.81L33.75-2.81L33.75-6.28L34.78-6.28ZM36.38-8.58L37.45-8.58L37.45 0L36.38 0L36.38-8.58ZM41.30-6.28L41.30-5.39L40.27-5.39L40.27-1.31L40.27-1.31Q40.27-0.80 40.88-0.80L40.88-0.80L41.30-0.80L41.30 0L41.30 0Q41.02 0 40.64 0L40.64 0L40.64 0Q40.55 0 40.50 0L40.50 0L40.50 0Q39.14 0 39.19-1.22L39.19-1.22L39.19-5.39L38.39-5.39L38.39-6.28L39.19-6.28L39.19-8.02L40.27-8.02L40.27-6.28L41.30-6.28ZM42.33-6.28L43.41-6.28L43.41 0L42.33 0L42.33-6.28ZM43.41-8.58L43.41-7.41L42.33-7.41L42.33-8.58L43.41-8.58ZM50.67-3.47L50.67-2.58L44.63-2.58L44.63-3.47L50.67-3.47ZM56.48-4.45L56.48-4.45L55.45-4.45L55.45-4.45Q55.45-5.53 53.95-5.53L53.95-5.53L53.95-5.53Q52.78-5.48 52.73-4.64L52.73-4.64L52.73-4.64Q52.64-4.03 53.86-3.80L53.86-3.80L54.94-3.56L54.94-3.56Q56.72-3.14 56.67-1.88L56.67-1.88L56.67-1.88Q56.58 0 54.23 0.09L54.23 0.09L54.23 0.09Q51.56 0.09 51.52-2.02L51.52-2.02L52.50-2.02L52.50-2.02Q52.59-0.70 54.23-0.70L54.23-0.70L54.23-0.70Q55.59-0.75 55.64-1.73L55.64-1.73L55.64-1.73Q55.73-2.30 54.42-2.63L54.42-2.63L53.16-2.91L53.16-2.91Q51.70-3.28 51.70-4.41L51.70-4.41L51.70-4.41Q51.80-6.33 54.09-6.47L54.09-6.47L54.09-6.47Q56.34-6.42 56.48-4.45ZM62.20-1.97L62.20-1.97L63.23-1.97L63.23-1.97Q63.05-0.89 62.11-0.23L62.11-0.23L62.11-0.23Q61.59 0.09 60.42 0.09L60.42 0.09L60.42 0.09Q57.75 0 57.61-2.95L57.61-2.95L57.61-2.95Q57.70-6.38 60.61-6.47L60.61-6.47L60.61-6.47Q63.28-6.42 63.33-2.77L63.33-2.77L58.73-2.77L58.73-2.77Q58.73-0.70 60.56-0.70L60.56-0.70L60.56-0.70Q61.88-0.80 62.20-1.97ZM58.73-3.61L58.73-3.61L62.25-3.61L62.25-3.61Q62.11-5.48 60.47-5.48L60.47-5.48L60.47-5.48Q58.92-5.34 58.73-3.61ZM68.86-1.97L68.86-1.97L69.89-1.97L69.89-1.97Q69.70-0.89 68.77-0.23L68.77-0.23L68.77-0.23Q68.25 0.09 67.08 0.09L67.08 0.09L67.08 0.09Q64.41 0 64.27-2.95L64.27-2.95L64.27-2.95Q64.36-6.38 67.27-6.47L67.27-6.47L67.27-6.47Q69.94-6.42 69.98-2.77L69.98-2.77L65.39-2.77L65.39-2.77Q65.39-0.70 67.22-0.70L67.22-0.70L67.22-0.70Q68.53-0.80 68.86-1.97ZM65.39-3.61L65.39-3.61L68.91-3.61L68.91-3.61Q68.77-5.48 67.13-5.48L67.13-5.48L67.13-5.48Q65.58-5.34 65.39-3.61ZM75.38-8.58L76.41-8.58L76.41 0L75.42 0L75.42-0.84L75.42-0.84Q74.86 0.09 73.64 0.09L73.64 0.09L73.64 0.09Q71.02 0 70.88-3.33L70.88-3.33L70.88-3.33Q71.02-6.33 73.50-6.47L73.50-6.47L73.50-6.47Q74.48-6.47 75.28-5.53L75.28-5.53L75.28-5.53Q75.33-5.44 75.38-5.39L75.38-5.39L75.38-5.44L75.38-8.58ZM71.95-3.14L71.95-3.14L71.95-3.14Q72.05-0.80 73.64-0.70L73.64-0.70L73.64-0.70Q75.33-0.89 75.38-2.81L75.38-2.81L75.38-2.81Q75.38-5.48 73.69-5.48L73.69-5.48L73.69-5.48Q71.91-5.48 71.95-3.14Z"></path></g></g></g></g></svg>
